# xmcd
#
# Track frame offsets:
#  150
#  16375
#  30868
#  45126
#  56909
#  69345
#  79522
#  94136
#  109849
#  120202
#  139205
#  147673
#
# Disc length: 2173 seconds
#
# Revision: 0
# Processed by: cddbd v1.5.2PL0 Copyright (c) Steve Scherf et al.
# Submitted via: Collectorz.com_Music_Collector 6.11
#
DISCID=95087b0c
DTITLE=Willie Nelson - Blue Skies
DYEAR=2005
DGENRE=
TTITLE0=Help Me Make It Through The Night
TTITLE1=Blue Skies
TTITLE2=Georgia On My Mind
TTITLE3=Me And Paul
TTITLE4=City Of New Orleans
TTITLE5=Please Don't Talk About Me When I'm Gone
TTITLE6=Funny How Time Slips Away
TTITLE7=Always On My Mind
TTITLE8=All Of Me
TTITLE9=I Never Cared For You
TTITLE10=The Floor Over You
TTITLE11=Stardust
EXTD=
EXTT0=
EXTT1=
EXTT2=
EXTT3=
EXTT4=
EXTT5=
EXTT6=
EXTT7=
EXTT8=
EXTT9=
EXTT10=
EXTT11=
PLAYORDER=
